<mxfile host="Electron" agent="Mozilla/5.0 (Windows NT 10.0; Win64; x64) AppleWebKit/537.36 (KHTML, like Gecko) draw.io/26.0.9 Chrome/128.0.6613.186 Electron/32.2.5 Safari/537.36" version="26.0.9">
  <diagram name="Page-1" id="ZCFeVBEHsK4uQ4dtXFbe">
    <mxGraphModel dx="1105" dy="662" grid="1" gridSize="10" guides="1" tooltips="1" connect="1" arrows="1" fold="1" page="1" pageScale="1" pageWidth="850" pageHeight="1100" math="0" shadow="0">
      <root>
        <mxCell id="0" />
        <mxCell id="1" parent="0" />
        <mxCell id="vKINVUFoagw0PtVVzx1w-1" value="Verkauf" style="shape=umlFrame;whiteSpace=wrap;html=1;pointerEvents=0;recursiveResize=0;container=1;collapsible=0;width=160;" parent="1" vertex="1">
          <mxGeometry x="120" y="150" width="340" height="630" as="geometry" />
        </mxCell>
        <mxCell id="vKINVUFoagw0PtVVzx1w-4" value="" style="ellipse;html=1;shape=startState;fillColor=#000000;strokeColor=#ff0000;" parent="vKINVUFoagw0PtVVzx1w-1" vertex="1">
          <mxGeometry x="30" y="60" width="30" height="30" as="geometry" />
        </mxCell>
        <mxCell id="vKINVUFoagw0PtVVzx1w-5" value="" style="edgeStyle=orthogonalEdgeStyle;html=1;verticalAlign=bottom;endArrow=open;endSize=8;strokeColor=#ff0000;rounded=0;" parent="vKINVUFoagw0PtVVzx1w-1" source="vKINVUFoagw0PtVVzx1w-4" target="vKINVUFoagw0PtVVzx1w-6" edge="1">
          <mxGeometry relative="1" as="geometry">
            <mxPoint x="45" y="150" as="targetPoint" />
          </mxGeometry>
        </mxCell>
        <mxCell id="vKINVUFoagw0PtVVzx1w-6" value="Auftrag erfassen" style="rounded=1;whiteSpace=wrap;html=1;arcSize=40;fontColor=#000000;fillColor=#ffffc0;strokeColor=#ff0000;" parent="vKINVUFoagw0PtVVzx1w-1" vertex="1">
          <mxGeometry x="110" y="55" width="120" height="40" as="geometry" />
        </mxCell>
        <mxCell id="vKINVUFoagw0PtVVzx1w-20" value="Vertrag wg. unmöglichkeit ablehnen" style="rounded=1;whiteSpace=wrap;html=1;arcSize=40;fontColor=#000000;fillColor=#ffffc0;strokeColor=#ff0000;" parent="vKINVUFoagw0PtVVzx1w-1" vertex="1">
          <mxGeometry x="110" y="150" width="120" height="40" as="geometry" />
        </mxCell>
        <mxCell id="vKINVUFoagw0PtVVzx1w-21" value="" style="edgeStyle=orthogonalEdgeStyle;html=1;verticalAlign=bottom;endArrow=open;endSize=8;strokeColor=#ff0000;rounded=0;" parent="vKINVUFoagw0PtVVzx1w-1" source="vKINVUFoagw0PtVVzx1w-20" target="vKINVUFoagw0PtVVzx1w-51" edge="1">
          <mxGeometry relative="1" as="geometry">
            <mxPoint x="190" y="250" as="targetPoint" />
            <Array as="points">
              <mxPoint x="170" y="480" />
            </Array>
          </mxGeometry>
        </mxCell>
        <mxCell id="vKINVUFoagw0PtVVzx1w-42" value="Vom Kaufvertrag wg. nichterfüllung zurücktreten" style="rounded=1;whiteSpace=wrap;html=1;arcSize=40;fontColor=#000000;fillColor=#ffffc0;strokeColor=#ff0000;" parent="vKINVUFoagw0PtVVzx1w-1" vertex="1">
          <mxGeometry x="200" y="360" width="120" height="40" as="geometry" />
        </mxCell>
        <mxCell id="vKINVUFoagw0PtVVzx1w-46" value="" style="shape=line;html=1;strokeWidth=6;strokeColor=#ff0000;" parent="vKINVUFoagw0PtVVzx1w-1" vertex="1">
          <mxGeometry x="230" y="420" width="200" height="10" as="geometry" />
        </mxCell>
        <mxCell id="vKINVUFoagw0PtVVzx1w-43" value="" style="edgeStyle=orthogonalEdgeStyle;html=1;verticalAlign=bottom;endArrow=open;endSize=8;strokeColor=#ff0000;rounded=0;" parent="vKINVUFoagw0PtVVzx1w-1" source="vKINVUFoagw0PtVVzx1w-42" target="vKINVUFoagw0PtVVzx1w-46" edge="1">
          <mxGeometry relative="1" as="geometry">
            <mxPoint x="260" y="460" as="targetPoint" />
            <Array as="points">
              <mxPoint x="260" y="410" />
              <mxPoint x="260" y="410" />
            </Array>
          </mxGeometry>
        </mxCell>
        <mxCell id="vKINVUFoagw0PtVVzx1w-44" value="Reservierung der Ware aufheben" style="rounded=1;whiteSpace=wrap;html=1;arcSize=40;fontColor=#000000;fillColor=#ffffc0;strokeColor=#ff0000;" parent="vKINVUFoagw0PtVVzx1w-1" vertex="1">
          <mxGeometry x="340" y="360" width="120" height="40" as="geometry" />
        </mxCell>
        <mxCell id="vKINVUFoagw0PtVVzx1w-45" value="" style="edgeStyle=orthogonalEdgeStyle;html=1;verticalAlign=bottom;endArrow=open;endSize=8;strokeColor=#ff0000;rounded=0;" parent="vKINVUFoagw0PtVVzx1w-1" source="vKINVUFoagw0PtVVzx1w-44" target="vKINVUFoagw0PtVVzx1w-46" edge="1">
          <mxGeometry relative="1" as="geometry">
            <mxPoint x="400" y="460" as="targetPoint" />
            <Array as="points">
              <mxPoint x="400" y="420" />
              <mxPoint x="400" y="420" />
            </Array>
          </mxGeometry>
        </mxCell>
        <mxCell id="vKINVUFoagw0PtVVzx1w-51" value="" style="rhombus;whiteSpace=wrap;html=1;fontColor=#000000;fillColor=#ffffc0;strokeColor=#ff0000;" parent="vKINVUFoagw0PtVVzx1w-1" vertex="1">
          <mxGeometry x="130" y="460" width="80" height="40" as="geometry" />
        </mxCell>
        <mxCell id="vKINVUFoagw0PtVVzx1w-52" value="" style="edgeStyle=orthogonalEdgeStyle;html=1;verticalAlign=bottom;endArrow=open;endSize=8;strokeColor=#ff0000;rounded=0;" parent="vKINVUFoagw0PtVVzx1w-1" source="vKINVUFoagw0PtVVzx1w-46" target="vKINVUFoagw0PtVVzx1w-51" edge="1">
          <mxGeometry relative="1" as="geometry">
            <mxPoint x="270" y="430" as="targetPoint" />
            <mxPoint x="270" y="410" as="sourcePoint" />
            <Array as="points">
              <mxPoint x="330" y="450" />
              <mxPoint x="330" y="450" />
            </Array>
          </mxGeometry>
        </mxCell>
        <mxCell id="vKINVUFoagw0PtVVzx1w-2" value="Versand" style="shape=umlFrame;whiteSpace=wrap;html=1;pointerEvents=0;recursiveResize=0;container=1;collapsible=0;width=160;" parent="1" vertex="1">
          <mxGeometry x="460" y="150" width="340" height="630" as="geometry" />
        </mxCell>
        <mxCell id="vKINVUFoagw0PtVVzx1w-8" value="Prüfen ob ware verfügbar ist" style="rounded=1;whiteSpace=wrap;html=1;arcSize=40;fontColor=#000000;fillColor=#ffffc0;strokeColor=#ff0000;" parent="vKINVUFoagw0PtVVzx1w-2" vertex="1">
          <mxGeometry x="30" y="55" width="120" height="40" as="geometry" />
        </mxCell>
        <mxCell id="vKINVUFoagw0PtVVzx1w-9" value="" style="edgeStyle=orthogonalEdgeStyle;html=1;verticalAlign=bottom;endArrow=open;endSize=8;strokeColor=#ff0000;rounded=0;" parent="vKINVUFoagw0PtVVzx1w-2" source="vKINVUFoagw0PtVVzx1w-8" edge="1">
          <mxGeometry relative="1" as="geometry">
            <mxPoint x="90" y="155" as="targetPoint" />
          </mxGeometry>
        </mxCell>
        <mxCell id="vKINVUFoagw0PtVVzx1w-18" value="[Ware ist verfügbar]" style="edgeStyle=orthogonalEdgeStyle;html=1;align=left;verticalAlign=bottom;endArrow=open;endSize=8;strokeColor=#ff0000;rounded=0;" parent="vKINVUFoagw0PtVVzx1w-2" source="vKINVUFoagw0PtVVzx1w-17" target="vKINVUFoagw0PtVVzx1w-22" edge="1">
          <mxGeometry x="-1" y="-20" relative="1" as="geometry">
            <mxPoint x="230" y="170" as="targetPoint" />
            <mxPoint x="-20" y="-20" as="offset" />
          </mxGeometry>
        </mxCell>
        <mxCell id="vKINVUFoagw0PtVVzx1w-17" value="" style="rhombus;whiteSpace=wrap;html=1;fontColor=#000000;fillColor=#ffffc0;strokeColor=#ff0000;" parent="vKINVUFoagw0PtVVzx1w-2" vertex="1">
          <mxGeometry x="50" y="150" width="80" height="40" as="geometry" />
        </mxCell>
        <mxCell id="vKINVUFoagw0PtVVzx1w-22" value="Ware reservieren" style="rounded=1;whiteSpace=wrap;html=1;arcSize=40;fontColor=#000000;fillColor=#ffffc0;strokeColor=#ff0000;" parent="vKINVUFoagw0PtVVzx1w-2" vertex="1">
          <mxGeometry x="210" y="150" width="120" height="40" as="geometry" />
        </mxCell>
        <mxCell id="vKINVUFoagw0PtVVzx1w-38" value="" style="shape=line;html=1;strokeWidth=6;strokeColor=#ff0000;" parent="vKINVUFoagw0PtVVzx1w-2" vertex="1">
          <mxGeometry x="-110" y="330" width="200" height="10" as="geometry" />
        </mxCell>
        <mxCell id="vKINVUFoagw0PtVVzx1w-3" value="Buchhaltung" style="shape=umlFrame;whiteSpace=wrap;html=1;pointerEvents=0;recursiveResize=0;container=1;collapsible=0;width=160;" parent="1" vertex="1">
          <mxGeometry x="800" y="150" width="340" height="630" as="geometry" />
        </mxCell>
        <mxCell id="vKINVUFoagw0PtVVzx1w-24" value="Rechnung erstellen" style="rounded=1;whiteSpace=wrap;html=1;arcSize=40;fontColor=#000000;fillColor=#ffffc0;strokeColor=#ff0000;" parent="vKINVUFoagw0PtVVzx1w-3" vertex="1">
          <mxGeometry x="40" y="150" width="120" height="40" as="geometry" />
        </mxCell>
        <mxCell id="vKINVUFoagw0PtVVzx1w-25" value="" style="edgeStyle=orthogonalEdgeStyle;html=1;verticalAlign=bottom;endArrow=open;endSize=8;strokeColor=#ff0000;rounded=0;" parent="vKINVUFoagw0PtVVzx1w-3" source="vKINVUFoagw0PtVVzx1w-24" target="vKINVUFoagw0PtVVzx1w-26" edge="1">
          <mxGeometry relative="1" as="geometry">
            <mxPoint x="100" y="250" as="targetPoint" />
          </mxGeometry>
        </mxCell>
        <mxCell id="vKINVUFoagw0PtVVzx1w-26" value="Zahlungseingang überprüfen" style="rounded=1;whiteSpace=wrap;html=1;arcSize=40;fontColor=#000000;fillColor=#ffffc0;strokeColor=#ff0000;" parent="vKINVUFoagw0PtVVzx1w-3" vertex="1">
          <mxGeometry x="190" y="150" width="120" height="40" as="geometry" />
        </mxCell>
        <mxCell id="vKINVUFoagw0PtVVzx1w-27" value="" style="rhombus;whiteSpace=wrap;html=1;fontColor=#000000;fillColor=#ffffc0;strokeColor=#ff0000;" parent="vKINVUFoagw0PtVVzx1w-3" vertex="1">
          <mxGeometry x="210" y="210" width="80" height="40" as="geometry" />
        </mxCell>
        <mxCell id="vKINVUFoagw0PtVVzx1w-30" value="" style="edgeStyle=orthogonalEdgeStyle;html=1;verticalAlign=bottom;endArrow=open;endSize=8;strokeColor=#ff0000;rounded=0;" parent="vKINVUFoagw0PtVVzx1w-3" source="vKINVUFoagw0PtVVzx1w-26" target="vKINVUFoagw0PtVVzx1w-27" edge="1">
          <mxGeometry relative="1" as="geometry">
            <mxPoint x="50" y="180" as="targetPoint" />
            <mxPoint y="180" as="sourcePoint" />
          </mxGeometry>
        </mxCell>
        <mxCell id="vKINVUFoagw0PtVVzx1w-32" value="" style="ellipse;html=1;shape=endState;fillColor=#000000;strokeColor=#ff0000;" parent="vKINVUFoagw0PtVVzx1w-3" vertex="1">
          <mxGeometry x="235" y="270" width="30" height="30" as="geometry" />
        </mxCell>
        <mxCell id="vKINVUFoagw0PtVVzx1w-34" value="" style="edgeStyle=orthogonalEdgeStyle;html=1;verticalAlign=bottom;endArrow=open;endSize=8;strokeColor=#ff0000;rounded=0;" parent="vKINVUFoagw0PtVVzx1w-3" source="vKINVUFoagw0PtVVzx1w-27" target="vKINVUFoagw0PtVVzx1w-32" edge="1">
          <mxGeometry relative="1" as="geometry">
            <mxPoint x="250" y="270" as="targetPoint" />
            <mxPoint x="260" y="200" as="sourcePoint" />
          </mxGeometry>
        </mxCell>
        <mxCell id="vKINVUFoagw0PtVVzx1w-36" value="[Zahlung ist erfolgt]" style="edgeLabel;html=1;align=center;verticalAlign=middle;resizable=0;points=[];" parent="vKINVUFoagw0PtVVzx1w-34" vertex="1" connectable="0">
          <mxGeometry x="-0.6584" relative="1" as="geometry">
            <mxPoint x="60" as="offset" />
          </mxGeometry>
        </mxCell>
        <mxCell id="vKINVUFoagw0PtVVzx1w-7" value="" style="edgeStyle=orthogonalEdgeStyle;html=1;verticalAlign=bottom;endArrow=open;endSize=8;strokeColor=#ff0000;rounded=0;" parent="1" source="vKINVUFoagw0PtVVzx1w-6" target="vKINVUFoagw0PtVVzx1w-8" edge="1">
          <mxGeometry relative="1" as="geometry">
            <mxPoint x="290" y="310" as="targetPoint" />
          </mxGeometry>
        </mxCell>
        <mxCell id="vKINVUFoagw0PtVVzx1w-19" value="[Ware nicht verfügbar]" style="edgeStyle=orthogonalEdgeStyle;html=1;align=left;verticalAlign=top;endArrow=open;endSize=8;strokeColor=#ff0000;rounded=0;" parent="1" source="vKINVUFoagw0PtVVzx1w-17" target="vKINVUFoagw0PtVVzx1w-20" edge="1">
          <mxGeometry x="0.2857" y="-20" relative="1" as="geometry">
            <mxPoint x="550" y="400" as="targetPoint" />
            <mxPoint as="offset" />
          </mxGeometry>
        </mxCell>
        <mxCell id="vKINVUFoagw0PtVVzx1w-23" value="" style="edgeStyle=orthogonalEdgeStyle;html=1;verticalAlign=bottom;endArrow=open;endSize=8;strokeColor=#ff0000;rounded=0;" parent="1" source="vKINVUFoagw0PtVVzx1w-22" target="vKINVUFoagw0PtVVzx1w-24" edge="1">
          <mxGeometry relative="1" as="geometry">
            <mxPoint x="730" y="410" as="targetPoint" />
          </mxGeometry>
        </mxCell>
        <mxCell id="vKINVUFoagw0PtVVzx1w-40" value="" style="edgeStyle=orthogonalEdgeStyle;html=1;verticalAlign=bottom;endArrow=open;endSize=8;strokeColor=#ff0000;rounded=0;" parent="1" source="vKINVUFoagw0PtVVzx1w-27" target="vKINVUFoagw0PtVVzx1w-38" edge="1">
          <mxGeometry relative="1" as="geometry">
            <mxPoint x="320" y="410" as="targetPoint" />
            <mxPoint x="300" y="350" as="sourcePoint" />
          </mxGeometry>
        </mxCell>
        <mxCell id="vKINVUFoagw0PtVVzx1w-41" value="[Zahlung ist nicht erfolgt]" style="edgeLabel;html=1;align=center;verticalAlign=middle;resizable=0;points=[];" parent="vKINVUFoagw0PtVVzx1w-40" vertex="1" connectable="0">
          <mxGeometry x="-0.8767" y="2" relative="1" as="geometry">
            <mxPoint x="-29" y="8" as="offset" />
          </mxGeometry>
        </mxCell>
        <mxCell id="vKINVUFoagw0PtVVzx1w-49" value="" style="edgeStyle=orthogonalEdgeStyle;html=1;verticalAlign=bottom;endArrow=open;endSize=8;strokeColor=#ff0000;rounded=0;" parent="1" source="vKINVUFoagw0PtVVzx1w-38" target="vKINVUFoagw0PtVVzx1w-42" edge="1">
          <mxGeometry relative="1" as="geometry">
            <mxPoint x="390" y="590" as="targetPoint" />
            <mxPoint x="390" y="570" as="sourcePoint" />
            <Array as="points">
              <mxPoint x="380" y="500" />
              <mxPoint x="380" y="500" />
            </Array>
          </mxGeometry>
        </mxCell>
        <mxCell id="vKINVUFoagw0PtVVzx1w-50" value="" style="edgeStyle=orthogonalEdgeStyle;html=1;verticalAlign=bottom;endArrow=open;endSize=8;strokeColor=#ff0000;rounded=0;" parent="1" source="vKINVUFoagw0PtVVzx1w-38" target="vKINVUFoagw0PtVVzx1w-44" edge="1">
          <mxGeometry relative="1" as="geometry">
            <mxPoint x="390" y="530" as="targetPoint" />
            <mxPoint x="460" y="500" as="sourcePoint" />
            <Array as="points">
              <mxPoint x="520" y="500" />
              <mxPoint x="520" y="500" />
            </Array>
          </mxGeometry>
        </mxCell>
        <mxCell id="vKINVUFoagw0PtVVzx1w-55" value="" style="edgeStyle=orthogonalEdgeStyle;html=1;verticalAlign=bottom;endArrow=open;endSize=8;strokeColor=#ff0000;rounded=0;" parent="1" source="vKINVUFoagw0PtVVzx1w-51" target="vKINVUFoagw0PtVVzx1w-53" edge="1">
          <mxGeometry relative="1" as="geometry">
            <mxPoint x="460" y="620" as="targetPoint" />
            <mxPoint x="460" y="590" as="sourcePoint" />
            <Array as="points" />
          </mxGeometry>
        </mxCell>
        <mxCell id="vKINVUFoagw0PtVVzx1w-53" value="Bearbeitung des Auftrages abschließen" style="rounded=1;whiteSpace=wrap;html=1;arcSize=40;fontColor=#000000;fillColor=#ffffc0;strokeColor=#ff0000;" parent="1" vertex="1">
          <mxGeometry x="230" y="670" width="120" height="40" as="geometry" />
        </mxCell>
        <mxCell id="vKINVUFoagw0PtVVzx1w-57" value="" style="edgeStyle=orthogonalEdgeStyle;html=1;verticalAlign=bottom;endArrow=open;endSize=8;strokeColor=#ff0000;rounded=0;" parent="1" source="vKINVUFoagw0PtVVzx1w-53" target="vKINVUFoagw0PtVVzx1w-56" edge="1">
          <mxGeometry relative="1" as="geometry">
            <mxPoint x="520" y="640" as="targetPoint" />
            <mxPoint x="500" y="640" as="sourcePoint" />
            <Array as="points" />
          </mxGeometry>
        </mxCell>
        <mxCell id="vKINVUFoagw0PtVVzx1w-56" value="" style="ellipse;html=1;shape=endState;fillColor=#000000;strokeColor=#ff0000;" parent="1" vertex="1">
          <mxGeometry x="275" y="740" width="30" height="30" as="geometry" />
        </mxCell>
      </root>
    </mxGraphModel>
  </diagram>
</mxfile>
